<svg xmlns="http://www.w3.org/2000/svg" width="19" height="15" viewBox="0 0 19 15">
  <metadata><?xpacket begin="﻿" id="W5M0MpCehiHzreSzNTczkc9d"?>
<x:xmpmeta xmlns:x="adobe:ns:meta/" x:xmptk="Adobe XMP Core 5.6-c138 79.159824, 2016/09/14-01:09:01        ">
   <rdf:RDF xmlns:rdf="http://www.w3.org/1999/02/22-rdf-syntax-ns#">
      <rdf:Description rdf:about=""/>
   </rdf:RDF>
</x:xmpmeta>
                                                                                                    
                                                                                                    
                                                                                                    
                                                                                                    
                                                                                                    
                                                                                                    
                                                                                                    
                                                                                                    
                                                                                                    
                                                                                                    
                                                                                                    
                                                                                                    
                                                                                                    
                                                                                                    
                                                                                                    
                                                                                                    
                                                                                                    
                                                                                                    
                                                                                                    
                                                                                                    
                           
<?xpacket end="w"?></metadata>
<defs>
    <style>
      .cls-1 {
        fill: #ec2809;
        fill-rule: evenodd;
      }
    </style>
  </defs>
  <path id="_01" data-name="01" class="cls-1" d="M942.889,1432.59a12.168,12.168,0,0,1,4.325,1.16,20.544,20.544,0,0,0,2.69.99,6.77,6.77,0,0,0,4.79-.52,8.738,8.738,0,0,0,2.3-1.56V1428a8.609,8.609,0,0,1-2.565,1.89,5.668,5.668,0,0,1-2.314.59,4.15,4.15,0,0,1-1.108-.17c-0.429-.11-1.317-0.43-2.663-0.95a23.444,23.444,0,0,0-2.967-.99,9.553,9.553,0,0,0-2.073-.22,7.107,7.107,0,0,0-5.29,2.37v4.47a6.921,6.921,0,0,1,4.879-2.4h0Zm0-8a12.168,12.168,0,0,1,4.325,1.16,20.544,20.544,0,0,0,2.69.99,6.77,6.77,0,0,0,4.79-.52,8.738,8.738,0,0,0,2.3-1.56V1420a8.609,8.609,0,0,1-2.565,1.89,5.668,5.668,0,0,1-2.314.59,4.15,4.15,0,0,1-1.108-.17c-0.429-.11-1.317-0.43-2.663-0.95a23.444,23.444,0,0,0-2.967-.99,9.553,9.553,0,0,0-2.073-.22,7.107,7.107,0,0,0-5.29,2.37v4.47a6.921,6.921,0,0,1,4.879-2.4h0Z" transform="translate(-938 -1420)"/>
</svg>
