<svg id="logo_gw02" data-name="logo gw02" xmlns="http://www.w3.org/2000/svg" width="90" height="80" viewBox="0 0 90 80">
  <metadata><?xpacket begin="﻿" id="W5M0MpCehiHzreSzNTczkc9d"?>
<x:xmpmeta xmlns:x="adobe:ns:meta/" x:xmptk="Adobe XMP Core 5.6-c138 79.159824, 2016/09/14-01:09:01        ">
   <rdf:RDF xmlns:rdf="http://www.w3.org/1999/02/22-rdf-syntax-ns#">
      <rdf:Description rdf:about=""/>
   </rdf:RDF>
</x:xmpmeta>
                                                                                                    
                                                                                                    
                                                                                                    
                                                                                                    
                                                                                                    
                                                                                                    
                                                                                                    
                                                                                                    
                                                                                                    
                                                                                                    
                                                                                                    
                                                                                                    
                                                                                                    
                                                                                                    
                                                                                                    
                                                                                                    
                                                                                                    
                                                                                                    
                                                                                                    
                                                                                                    
                           
<?xpacket end="w"?></metadata>
<defs>
    <style>
      .cls-1 {
        fill: #fff;
      }

      .cls-1, .cls-2 {
        fill-rule: evenodd;
      }

      .cls-2 {
        fill: #ec2809;
      }
    </style>
  </defs>
  <path id="white" class="cls-1" d="M963.4,3804.12a3.182,3.182,0,0,1,3.971,2.21q1.911,8.055,3.8,16.11a3.109,3.109,0,0,1-.418,2.41,3.18,3.18,0,0,1-5.737-.95q-1.9-8.055-3.8-16.11A3.135,3.135,0,0,1,963.4,3804.12Zm69.575,0a3.2,3.2,0,0,1,3.71,1.51,3.114,3.114,0,0,1,.3,2.22q-1.89,7.995-3.78,16.01a3.174,3.174,0,0,1-6.17,0,3.548,3.548,0,0,1,.08-1.77q1.86-7.845,3.71-15.7A3.159,3.159,0,0,1,1032.97,3804.12Zm-44.733,40.46a3.224,3.224,0,0,1,3.085.2,3.132,3.132,0,0,1,1.35,3.36q-3.936,16.68-7.874,33.38a3.173,3.173,0,0,1-6.19,0q-3.241-13.74-6.485-27.48c-4.988-.01-9.975,0-14.963-0.01a3.125,3.125,0,1,1,0-6.25h17.452a3.168,3.168,0,0,1,3.078,2.32c1.348,5.65,2.654,11.31,4.015,16.96q2.4-10.185,4.805-20.37A3.14,3.14,0,0,1,988.237,3844.58Zm18.553,0.26a3.207,3.207,0,0,1,3-.33,3.1,3.1,0,0,1,1.89,2.17q2.415,10.17,4.81,20.35c1.39-5.66,2.67-11.34,4.04-17.01a3.159,3.159,0,0,1,3.05-2.24c5.78,0,11.56-.01,17.35,0a3.125,3.125,0,0,1-.01,6.25c-4.95.01-9.89,0-14.84,0q-3.27,13.815-6.52,27.62a3.174,3.174,0,0,1-6.13-.03q-3.795-16.065-7.58-32.11c-0.12-.58-0.29-1.15-0.39-1.73A3.128,3.128,0,0,1,1006.79,3844.84Z" transform="translate(-954 -3804)"/>
  <path id="red" class="cls-2" d="M996.043,3806.31a3.179,3.179,0,0,1,5.837-.69,6.437,6.437,0,0,1,.49,1.56q3.15,13.365,6.31,26.73,15.51-.015,31.02-0.01a6.042,6.042,0,0,1,2.36.24,3.124,3.124,0,0,1-1.13,6.02q-17.4.015-34.8,0a3.166,3.166,0,0,1-3.04-2.37q-2-8.4-3.974-16.83a4.95,4.95,0,0,0-.24.89q-1.887,7.98-3.768,15.96a3.172,3.172,0,0,1-3.037,2.35h-34.92a3.168,3.168,0,0,1-3.081-2.49,3.135,3.135,0,0,1,1.837-3.51,4.161,4.161,0,0,1,1.852-.26q15.882,0.015,31.764.01C991.709,3824.71,993.862,3815.51,996.043,3806.31Z" transform="translate(-954 -3804)"/>
</svg>
