<svg id="logo_gw01" data-name="logo gw01" xmlns="http://www.w3.org/2000/svg" width="220" height="79" viewBox="0 0 220 79">
  <metadata><?xpacket begin="﻿" id="W5M0MpCehiHzreSzNTczkc9d"?>
<x:xmpmeta xmlns:x="adobe:ns:meta/" x:xmptk="Adobe XMP Core 5.6-c138 79.159824, 2016/09/14-01:09:01        ">
   <rdf:RDF xmlns:rdf="http://www.w3.org/1999/02/22-rdf-syntax-ns#">
      <rdf:Description rdf:about=""/>
   </rdf:RDF>
</x:xmpmeta>
                                                                                                    
                                                                                                    
                                                                                                    
                                                                                                    
                                                                                                    
                                                                                                    
                                                                                                    
                                                                                                    
                                                                                                    
                                                                                                    
                                                                                                    
                                                                                                    
                                                                                                    
                                                                                                    
                                                                                                    
                                                                                                    
                                                                                                    
                                                                                                    
                                                                                                    
                                                                                                    
                           
<?xpacket end="w"?></metadata>
<defs>
    <style>
      .cls-1 {
        fill: #fff;
      }

      .cls-1, .cls-2 {
        fill-rule: evenodd;
      }

      .cls-2 {
        fill: #ec2809;
      }
    </style>
  </defs>
  <path id="white" class="cls-1" d="M1344.22,2234.12a3.117,3.117,0,0,1,3.89,2.18q1.875,7.95,3.73,15.91a3.1,3.1,0,0,1-6.04,1.44q-1.86-7.95-3.72-15.91A3.091,3.091,0,0,1,1344.22,2234.12Zm68.24,0a3.132,3.132,0,0,1,3.64,1.49,3.038,3.038,0,0,1,.29,2.19q-1.845,7.9-3.71,15.82a3.109,3.109,0,0,1-6.05-.01,3.428,3.428,0,0,1,.09-1.74l3.63-15.51A3.119,3.119,0,0,1,1412.46,2234.12Zm41.37,29.88a2.273,2.273,0,0,1,2.38.73,1.97,1.97,0,0,1-.39,2.67,2.5,2.5,0,0,1-2.62.08,1.967,1.967,0,0,1-.56-2.66A1.93,1.93,0,0,1,1453.83,2264Zm-17.03,1.62a11.161,11.161,0,0,1,6.17-1.5,13.981,13.981,0,0,1,4.91.97,2.911,2.911,0,0,1,1.37.91,1.639,1.639,0,0,1-.93,2.44,2.588,2.588,0,0,1-1.35-.32,11.33,11.33,0,0,0-5.44-.63,4.653,4.653,0,0,0-3.22,2.01,9.369,9.369,0,0,0-1.16,5.83,6.646,6.646,0,0,0,1.63,4.29,5.414,5.414,0,0,0,3.95,1.39,13.046,13.046,0,0,0,3.29-.39v-4.36c-0.86-.02-1.72.01-2.58-0.01a1.441,1.441,0,0,1-1.21-.68,1.5,1.5,0,0,1,.28-1.76,1.52,1.52,0,0,1,1.05-.33c1.59,0,3.17.02,4.76,0.02a1.777,1.777,0,0,1,1.36.37,2.416,2.416,0,0,1,.45,1.57c-0.01,1.78.01,3.56-.01,5.35a3.305,3.305,0,0,1-.61,2.05,3.868,3.868,0,0,1-2.09.87,21.757,21.757,0,0,1-6.48.52,9.368,9.368,0,0,1-5.57-2.39,8.83,8.83,0,0,1-2.57-5.22,13.371,13.371,0,0,1,.55-6.64A8.563,8.563,0,0,1,1436.8,2265.62Zm57.93,1.3a1.936,1.936,0,0,1,1.61-2.36,1.913,1.913,0,0,1,2.18,1.52c1.07,4.51,2.11,9.03,3.17,13.55,0.34-.9.56-1.85,0.85-2.77q1.44-4.8,2.86-9.61a4.554,4.554,0,0,1,1.13-2.05,2.938,2.938,0,0,1,2.69-.46,3.267,3.267,0,0,1,1.92,2.39q1.875,6.27,3.73,12.56,1.53-6.51,3.04-13.03a2.543,2.543,0,0,1,1.05-1.87,1.992,1.992,0,0,1,2.8.95,2.359,2.359,0,0,1,0,1.53c-1.24,4.89-2.45,9.79-3.69,14.69a3.014,3.014,0,0,1-3.53,2.01,3.152,3.152,0,0,1-2.42-2.17c-1.29-4.31-2.54-8.62-3.84-12.93q-1.815,6.15-3.63,12.28a4.042,4.042,0,0,1-.98,1.97,3.26,3.26,0,0,1-4.21.25,2.625,2.625,0,0,1-.97-1.51Q1496.615,2274.39,1494.73,2266.92Zm44.63-1.22a1.737,1.737,0,0,1,1.54.05,1.814,1.814,0,0,1,.64,1.51c0.02,1.1,0,2.2.01,3.3,0.71,0,1.42-.02,2.13,0a1.044,1.044,0,0,1,.98.67,1.561,1.561,0,0,1-.15,1.38,1.344,1.344,0,0,1-1.06.41h-1.9v5.39a4.823,4.823,0,0,0,.38,2.35,1.424,1.424,0,0,0,1.39.56,3.2,3.2,0,0,1,1.48.11,1.411,1.411,0,0,1,.15,2.15,5.912,5.912,0,0,1-3.06.48,4.03,4.03,0,0,1-2.93-1.06,4.629,4.629,0,0,1-1.13-3.29c-0.01-2.23,0-4.46-.01-6.69a8.862,8.862,0,0,1-1.63-.07,1.256,1.256,0,0,1,0-2.34,11.692,11.692,0,0,1,1.78-.05c0.14-1.11.25-2.21,0.39-3.32A1.875,1.875,0,0,1,1539.36,2265.7Zm9.64-.01a1.579,1.579,0,0,1,1.78.28,2.5,2.5,0,0,1,.4,1.53v3.06c0.71,0,1.41-.02,2.12,0a1.048,1.048,0,0,1,.97.61,1.7,1.7,0,0,1-.03,1.29,1.166,1.166,0,0,1-1.06.55c-0.66.02-1.33,0-2,.01v5.74a4.044,4.044,0,0,0,.42,2.06,1.53,1.53,0,0,0,1.46.5,2.642,2.642,0,0,1,1.37.11,1.392,1.392,0,0,1,.08,2.2,5.921,5.921,0,0,1-2.86.43,4.152,4.152,0,0,1-3.01-1.01,4.655,4.655,0,0,1-1.18-3.34c-0.01-2.23,0-4.46,0-6.69a8.824,8.824,0,0,1-1.63-.07,1.252,1.252,0,0,1-.01-2.34,11.766,11.766,0,0,1,1.78-.05c0.14-1.11.25-2.22,0.39-3.32A1.9,1.9,0,0,1,1549,2265.69Zm-87.09,5.17a6.914,6.914,0,0,1,4.07-.33,4.052,4.052,0,0,1,2.67,2.14,2.2,2.2,0,0,1,.43-1.65,1.9,1.9,0,0,1,2.31-.2,2.286,2.286,0,0,1,.73,1.89v10.32a6.917,6.917,0,0,1-1.51,4.68,6.331,6.331,0,0,1-4.09,2.01,12.882,12.882,0,0,1-5.2-.46,2.577,2.577,0,0,1-1.5-.93,1.255,1.255,0,0,1,.46-1.66,1.389,1.389,0,0,1,1.21-.05,9.366,9.366,0,0,0,3.84.65,3.249,3.249,0,0,0,2.78-1.46c0.69-1.25.42-2.73,0.48-4.1a3.642,3.642,0,0,1-1.59,1.7,6.1,6.1,0,0,1-4.06.34,5.7,5.7,0,0,1-3.85-2.83,8.5,8.5,0,0,1-.46-6.23A5.821,5.821,0,0,1,1461.91,2270.86Zm2.65,1.95a2.624,2.624,0,0,0-1.71,1.24,6.667,6.667,0,0,0-.7,3.78,4.284,4.284,0,0,0,1.17,2.91,3.091,3.091,0,0,0,4.4-.29,6.912,6.912,0,0,0-.09-6.85A3.169,3.169,0,0,0,1464.56,2272.81Zm10.78-1.39a11.151,11.151,0,0,1,4.24-1.07,8.827,8.827,0,0,1,3.43.37,4.174,4.174,0,0,1,2.33,1.83,6.822,6.822,0,0,1,.72,3.61c-0.01,2.01.01,4.03-.01,6.04a1.7,1.7,0,0,1-3.27.7,3.1,3.1,0,0,1-.14-1.21,3.6,3.6,0,0,1-1.33,1.66,5.357,5.357,0,0,1-3.68.66,4.312,4.312,0,0,1-3.06-1.78,4.421,4.421,0,0,1-.37-3.4,3.277,3.277,0,0,1,2.3-2.22,22.579,22.579,0,0,1,6.03-.58,4.574,4.574,0,0,0-.37-2.43,2.119,2.119,0,0,0-1.86-.82,10.355,10.355,0,0,0-3.97.94,1.111,1.111,0,0,1-1.36-.55A1.23,1.23,0,0,1,1475.34,2271.42Zm2.56,7.08a2.119,2.119,0,0,0-.46,2.29,1.733,1.733,0,0,0,1.57,1.09,3.306,3.306,0,0,0,3.1-1.9,4.1,4.1,0,0,0,.39-2.13c-0.73-.01-1.47,0-2.21.05A4.718,4.718,0,0,0,1477.9,2278.5Zm45.85-7.06a11.6,11.6,0,0,1,5.89-1.09,5.535,5.535,0,0,1,3.63,1.49,5.478,5.478,0,0,1,1.24,3.72c0.01,1.94,0,3.88,0,5.81a2.547,2.547,0,0,1-.52,2.08,1.727,1.727,0,0,1-2.5-.12,2.277,2.277,0,0,1-.4-1.61,3.557,3.557,0,0,1-1.35,1.64,5.426,5.426,0,0,1-3.64.66,3.862,3.862,0,0,1-3.46-5.14,3.269,3.269,0,0,1,2.34-2.28,22.764,22.764,0,0,1,6-.57,4.175,4.175,0,0,0-.45-2.54,2.465,2.465,0,0,0-2.19-.7,10.206,10.206,0,0,0-3.26.81,1.379,1.379,0,0,1-.93.16A1.326,1.326,0,0,1,1523.75,2271.44Zm2.56,7.09a2.152,2.152,0,0,0-.42,2.24,1.709,1.709,0,0,0,1.5,1.1,3.319,3.319,0,0,0,3.16-1.85,4.17,4.17,0,0,0,.4-2.18c-0.79,0-1.59.01-2.38,0.07A4.436,4.436,0,0,0,1526.31,2278.53Zm-72.35-7.99a2,2,0,0,1,1.79.45,2.406,2.406,0,0,1,.57,1.73c-0.01,3.04,0,6.08-.01,9.12a1.865,1.865,0,0,1-3.32,1.38,3.7,3.7,0,0,1-.4-2.2v-8.18A2.021,2.021,0,0,1,1453.96,2270.54Zm-85.38,3.53a3.144,3.144,0,0,1,3.03.2,3.111,3.111,0,0,1,1.32,3.32q-3.855,16.47-7.72,32.96a3.107,3.107,0,0,1-6.07,0q-3.18-13.575-6.36-27.14H1338.1a3.129,3.129,0,0,1-2.31-1.03,3.094,3.094,0,0,1,2.31-5.15h17.12a3.109,3.109,0,0,1,3.02,2.29c1.32,5.58,2.6,11.17,3.94,16.75q2.355-10.065,4.71-20.11A3.1,3.1,0,0,1,1368.58,2274.07Zm18.21,0.26a3.14,3.14,0,0,1,2.94-.33,3.082,3.082,0,0,1,1.85,2.15q2.37,10.035,4.72,20.09c1.36-5.59,2.62-11.2,3.96-16.79a3.108,3.108,0,0,1,2.99-2.22h17.02a3.091,3.091,0,0,1-.01,6.18H1405.7l-6.39,27.27a3.111,3.111,0,0,1-6.02-.04q-3.72-15.84-7.43-31.7c-0.12-.57-0.29-1.13-0.38-1.71A3.078,3.078,0,0,1,1386.79,2274.33Z" transform="translate(-1335 -2234)"/>
  <path id="red" class="cls-2" d="M1376.24,2236.28a3.114,3.114,0,0,1,5.73-.68,6.379,6.379,0,0,1,.47,1.54q3.105,13.2,6.19,26.39h30.44a5.812,5.812,0,0,1,2.31.24,3.077,3.077,0,0,1,1.9,3.12,3.109,3.109,0,0,1-3.01,2.82h-34.14a3.11,3.11,0,0,1-2.98-2.34q-1.95-8.31-3.9-16.62a5.171,5.171,0,0,0-.23.88c-1.24,5.25-2.46,10.5-3.7,15.75a3.1,3.1,0,0,1-2.98,2.33h-34.25a3.092,3.092,0,0,1-1.22-5.93,4.153,4.153,0,0,1,1.82-.25h31.15C1371.99,2254.45,1374.1,2245.36,1376.24,2236.28Z" transform="translate(-1335 -2234)"/>
</svg>
