<svg id="logo" xmlns="http://www.w3.org/2000/svg" width="120" height="30" viewBox="0 0 120 30">
  <metadata><?xpacket begin="﻿" id="W5M0MpCehiHzreSzNTczkc9d"?>
<x:xmpmeta xmlns:x="adobe:ns:meta/" x:xmptk="Adobe XMP Core 5.6-c138 79.159824, 2016/09/14-01:09:01        ">
   <rdf:RDF xmlns:rdf="http://www.w3.org/1999/02/22-rdf-syntax-ns#">
      <rdf:Description rdf:about=""/>
   </rdf:RDF>
</x:xmpmeta>
                                                                                                    
                                                                                                    
                                                                                                    
                                                                                                    
                                                                                                    
                                                                                                    
                                                                                                    
                                                                                                    
                                                                                                    
                                                                                                    
                                                                                                    
                                                                                                    
                                                                                                    
                                                                                                    
                                                                                                    
                                                                                                    
                                                                                                    
                                                                                                    
                                                                                                    
                                                                                                    
                           
<?xpacket end="w"?></metadata>
<defs>
    <style>
      .cls-1 {
        fill: #fff;
      }

      .cls-1, .cls-2 {
        fill-rule: evenodd;
      }

      .cls-2 {
        fill: #ec2809;
      }
    </style>
  </defs>
  <path id="stat" class="cls-1" d="M487.321,78.653a4.753,4.753,0,0,0,1.691-3.972,4.27,4.27,0,0,0-.3-1.626,4.05,4.05,0,0,0-.732-1.212,5.129,5.129,0,0,0-1.152-.9,11.391,11.391,0,0,0-1.287-.675q-0.569-.245-1.376-0.521c-0.119-.041-0.289-0.1-0.508-0.184q-2.752-.95-2.752-1.779,0-1.2,1.675-1.2a8.845,8.845,0,0,1,4.337,1.534l1.736-3.221a10.318,10.318,0,0,0-5.983-1.9,6.32,6.32,0,0,0-4.188,1.4,4.707,4.707,0,0,0-1.676,3.819,4.822,4.822,0,0,0,.4,2.04,3.643,3.643,0,0,0,1.182,1.442,8.6,8.6,0,0,0,1.481.89,13.479,13.479,0,0,0,1.72.629l0.568,0.169,0.568,0.169c0.14,0.041.309,0.1,0.509,0.169s0.354,0.133.464,0.184l0.389,0.184a1.926,1.926,0,0,1,.359.215,2.977,2.977,0,0,1,.254.23,0.665,0.665,0,0,1,.164.276,1.087,1.087,0,0,1,.045.306q0,1.288-1.914,1.289a8.545,8.545,0,0,1-5.056-1.963L476,77.5a10.685,10.685,0,0,0,6.88,2.485A6.96,6.96,0,0,0,487.321,78.653Zm13.607,0.381V75.278a4.333,4.333,0,0,1-2.19.585,1.344,1.344,0,0,1-1.43-1.6V67.215h3.679v-4h-3.679V59h-4.439v4.216H491v4h1.868v7.818a5.136,5.136,0,0,0,1.183,3.832,4.706,4.706,0,0,0,3.372,1.123,6.444,6.444,0,0,0,3.5-.954h0Zm12.606-1.14v1.786h4.477V70.1a7.187,7.187,0,0,0-1.767-5.265q-1.827-1.847-5.512-1.847a15.452,15.452,0,0,0-6.335,1.324l1.157,3.571a13,13,0,0,1,4.508-.893q3.5,0,3.5,3.017v0.277a12.085,12.085,0,0,0-3.99-.677,7.867,7.867,0,0,0-4.8,1.324A4.6,4.6,0,0,0,503,74.876a4.656,4.656,0,0,0,1.6,3.756,5.977,5.977,0,0,0,4,1.355,6.273,6.273,0,0,0,4.934-2.094h0Zm-5.361-1.678a1.745,1.745,0,0,1-.7-1.462,2.009,2.009,0,0,1,.837-1.74,4,4,0,0,1,2.361-.6,6.867,6.867,0,0,1,2.954.616V73.86a2.561,2.561,0,0,1-1,2.078,4.024,4.024,0,0,1-2.619.816A2.913,2.913,0,0,1,508.173,76.215Zm21.762,2.818V75.278a4.335,4.335,0,0,1-2.19.585,1.344,1.344,0,0,1-1.431-1.6V67.215h3.68v-4h-3.68V59h-4.438v4.216h-1.868v4h1.868v7.818a5.132,5.132,0,0,0,1.183,3.832,4.7,4.7,0,0,0,3.372,1.123,6.444,6.444,0,0,0,3.5-.954h0Z" transform="translate(-410 -54)"/>
  <path id="btc" class="cls-2" d="M464.915,63.271a4.493,4.493,0,0,0-3.576,1.65,6.6,6.6,0,0,0,0,8.142,4.5,4.5,0,0,0,3.576,1.642,4.927,4.927,0,0,0,2.6-.649,8.434,8.434,0,0,0,2.119-1.948l4.355,3.165a13.628,13.628,0,0,1-2.25,2.444,9.7,9.7,0,0,1-2.986,1.63,11.912,11.912,0,0,1-4.013.64,10.681,10.681,0,0,1-5.411-1.408,10.314,10.314,0,0,1-3.889-3.937,11.744,11.744,0,0,1-.6-9.972,10.771,10.771,0,0,1,2.275-3.5,10.5,10.5,0,0,1,3.493-2.325,11.253,11.253,0,0,1,4.381-.857,10.225,10.225,0,0,1,8.768,4.421l-4.239,3.338A5.708,5.708,0,0,0,464.915,63.271ZM446.144,80h-6.31V63.351H433V58h20v5.354h-6.85V80Zm-15.269-9.517a5.66,5.66,0,0,1-1.1,7.921A10.291,10.291,0,0,1,424,79.972V84h-3V80h-3v4h-3V80h-5V75h2V63h-2V58h2v0h3V54h3v4h3V54h3v4.013a8.121,8.121,0,0,1,5.566,1.933,4.754,4.754,0,0,1,1.451,3.566,5.091,5.091,0,0,1-3.454,4.95A7.352,7.352,0,0,1,430.875,70.479Zm-6.707-7.169a3.65,3.65,0,0,0-2.086-.5h-4.017v3.912h3.892q2.928,0,2.927-2A1.617,1.617,0,0,0,424.168,63.311Zm0.89,8.266a3.94,3.94,0,0,0-2.274-.539h-4.719v4.142h4.781a3.783,3.783,0,0,0,2.2-.547,1.812,1.812,0,0,0,.779-1.579A1.714,1.714,0,0,0,425.058,71.576Z" transform="translate(-410 -54)"/>
</svg>
