<svg xmlns="http://www.w3.org/2000/svg" width="14" height="14" viewBox="0 0 14 14">
  <metadata><?xpacket begin="﻿" id="W5M0MpCehiHzreSzNTczkc9d"?>
<x:xmpmeta xmlns:x="adobe:ns:meta/" x:xmptk="Adobe XMP Core 5.6-c138 79.159824, 2016/09/14-01:09:01        ">
   <rdf:RDF xmlns:rdf="http://www.w3.org/1999/02/22-rdf-syntax-ns#">
      <rdf:Description rdf:about=""/>
   </rdf:RDF>
</x:xmpmeta>
                                                                                                    
                                                                                                    
                                                                                                    
                                                                                                    
                                                                                                    
                                                                                                    
                                                                                                    
                                                                                                    
                                                                                                    
                                                                                                    
                                                                                                    
                                                                                                    
                                                                                                    
                                                                                                    
                                                                                                    
                                                                                                    
                                                                                                    
                                                                                                    
                                                                                                    
                                                                                                    
                           
<?xpacket end="w"?></metadata>
<defs>
    <style>
      .cls-1 {
        fill: #8f807d;
        fill-rule: evenodd;
      }
    </style>
  </defs>
  <path id="question" class="cls-1" d="M339.051,516.788a2.237,2.237,0,0,0-1.484.544,1.728,1.728,0,0,0-.695,1.433h1.209a0.774,0.774,0,0,1,.295-0.664,0.918,0.918,0,0,1,.635-0.254,0.814,0.814,0,0,1,.859.844,0.878,0.878,0,0,1-.23.618l-0.729.728a1.451,1.451,0,0,0-.322.514,1.817,1.817,0,0,0,0,.594v0.5h0.824V521.3a0.972,0.972,0,0,1,.239-0.619c0.046-.053.137-0.118,0.215-0.195s0.184-.166.294-0.27,0.206-.188.273-0.255a4.412,4.412,0,0,0,.293-0.339,1.526,1.526,0,0,0,.331-1,1.7,1.7,0,0,0-.558-1.354A2.138,2.138,0,0,0,339.051,516.788Zm-0.076,5.331a0.748,0.748,0,0,0-.54.219,0.713,0.713,0,0,0-.224.525,0.688,0.688,0,0,0,.229.52,0.773,0.773,0,0,0,.545.214,0.747,0.747,0,0,0,.54-0.219,0.713,0.713,0,0,0,.224-0.525,0.689,0.689,0,0,0-.23-0.52A0.767,0.767,0,0,0,338.975,522.119ZM339,513a7,7,0,1,0,7,7A7,7,0,0,0,339,513Zm0,12.765A5.765,5.765,0,1,1,344.765,520,5.765,5.765,0,0,1,339,525.765Z" transform="translate(-332 -513)"/>
</svg>
