<svg xmlns="http://www.w3.org/2000/svg" width="129" height="72" viewBox="0 0 129 72">
  <metadata><?xpacket begin="﻿" id="W5M0MpCehiHzreSzNTczkc9d"?>
<x:xmpmeta xmlns:x="adobe:ns:meta/" x:xmptk="Adobe XMP Core 5.6-c138 79.159824, 2016/09/14-01:09:01        ">
   <rdf:RDF xmlns:rdf="http://www.w3.org/1999/02/22-rdf-syntax-ns#">
      <rdf:Description rdf:about=""/>
   </rdf:RDF>
</x:xmpmeta>
                                                                                                    
                                                                                                    
                                                                                                    
                                                                                                    
                                                                                                    
                                                                                                    
                                                                                                    
                                                                                                    
                                                                                                    
                                                                                                    
                                                                                                    
                                                                                                    
                                                                                                    
                                                                                                    
                                                                                                    
                                                                                                    
                                                                                                    
                                                                                                    
                                                                                                    
                                                                                                    
                           
<?xpacket end="w"?></metadata>
<defs>
    <style>
      .cls-1 {
        fill: #ec2809;
        fill-rule: evenodd;
      }
    </style>
  </defs>
  <path id="red" class="cls-1" d="M1213.14,494.238c4.06-.393,8.09-1.195,12.18-1.142,7.94-.415,15.87.746,23.69,2.046a23.145,23.145,0,0,0,5.15.646,31.622,31.622,0,0,0,6.33,1.03,27.329,27.329,0,0,1,7.43,2.586c1.25,0.59,2.48,1.227,3.71,1.861a24.53,24.53,0,0,0,3.03,1.986c2.01,0.96,3.36,2.8,4.74,4.473,1.01,1.139,1.18,2.7,1.95,3.969,0.27,0.68.2,1.455,0.43,2.158,0.58,2-.14,4.031-0.31,6.03-0.32,1.132-.48,2.307-0.86,3.415-0.28,1.006-.77,1.933-1.11,2.916-0.32.551-.69,1.069-1.01,1.623a46.057,46.057,0,0,1-4.26,6.031c-0.82.832-1.24,2-2.29,2.6a10.334,10.334,0,0,1-2.29,2.316,8.376,8.376,0,0,1-1.38,1.6c-1.44.683-2.17,2.326-3.69,2.927a110.71,110.71,0,0,1-9.48,6.393c-1.91,1.076-3.8,2.2-5.77,3.167-3.31,1.775-6.96,2.9-10.26,4.675a31.062,31.062,0,0,0-3.24,1.092c-1.28.274-2.4,0.983-3.7,1.168a18.932,18.932,0,0,1-3.54,1.142c-1.81.709-3.89,0.366-5.61,1.322-3.84.64-7.67,1.4-11.54,1.894-3.77.026-7.48,0.765-11.25,0.755-7,.126-14.06.264-20.94-1.1-2.98-.726-5.95-1.5-8.84-2.518-1.73-.851-3.66-1.286-5.29-2.358-1.81-.951-3.58-1.97-5.35-2.983a14.719,14.719,0,0,1-4.3-4.958,7.913,7.913,0,0,1-1.18-2.663c-1.27-2.85-1.33-6.063-1.28-9.138a28.821,28.821,0,0,1,.83-5.536c0.87-2.211,1.44-4.526,2.3-6.74,0.77-2.9,2.63-5.335,4.4-7.707,0.59-.864,1.7-1.346,2.01-2.4,0.14-.046.42-0.142,0.56-0.192a5.762,5.762,0,0,1,1.69-1.758,3.31,3.31,0,0,1,1.3-1.336c0.2-.241.41-0.479,0.61-0.71,1.77-1.207,3.1-2.929,4.89-4.114,1.14-.735,2.26-1.511,3.45-2.167,2.68-1.386,5.32-2.847,7.98-4.266a8.749,8.749,0,0,0,2.03-1.187c2.37-1.159,4.78-2.237,7.19-3.329,2.16-.594,4.08-1.851,6.3-2.253a15.788,15.788,0,0,1,4.56-.908c2.23-.112,4.4-1.2,6.64-0.818A3.759,3.759,0,0,0,1213.14,494.238Zm5.89,5.714c-5.04.679-10.16,1.184-15.03,2.725a44.352,44.352,0,0,0-5.89,1.8,64.274,64.274,0,0,0-8.63,4.025c-1.15.756-2.54,1.112-3.56,2.059-2.24,1.732-4.47,3.474-6.73,5.173-2.72,2.019-4.9,4.777-8.02,6.242,0.37-.5.81-0.954,1.21-1.439a2.136,2.136,0,0,1,.56-1.174c2.21-2.4,4.72-4.507,6.88-6.952,1.08-1.616,2.9-2.447,4.29-3.747,1.42-.871,2.82-1.8,4.18-2.775a22.633,22.633,0,0,0,2.71-1.54,30.177,30.177,0,0,1,3.76-2.079c-0.67.225-1.33,0.469-1.99,0.72-1.45-.037-2.61,1.006-4.01,1.223a2.787,2.787,0,0,1-1.29.64c-1.68.792-3.51,1.4-4.86,2.726-1.62,1.223-3.28,2.381-4.8,3.727-0.11-.211-0.32-0.636-0.42-0.851-2.25.746-4,2.422-5.89,3.775a44.339,44.339,0,0,0-6.59,6.037,27.434,27.434,0,0,0-4.29,6.014c-1.08,1.465-1.47,3.266-2.21,4.9a13.855,13.855,0,0,0-1.08,5.437,13.41,13.41,0,0,0,.88,7.373c1.58,3.072,4.47,5.177,7.42,6.856,2.43,0.953,4.76,2.161,7.23,3.019,2.05,1.019,4.33,1.332,6.49,2.018,3.06,0.466,6.09,1.251,9.19,1.248,3.08,0.415,6.2.181,9.29,0.471,3.89,0.218,7.74-.511,11.62-0.534,2.11,0.01,4.14-.735,6.26-0.643,1.79,0.026,3.5-.66,5.29-0.7,2.27-.053,4.36-1.185,6.64-1.119a1.261,1.261,0,0,0,1.13-.386,5.753,5.753,0,0,1,2.48-.594c0.6-.2,1.16-0.653,1.83-0.346l0.02-.277c1.26-.541,2.66-0.6,3.83-1.386a54.945,54.945,0,0,0,7.5-2.675c3.33-1.551,6.66-3.085,9.84-4.936a11.849,11.849,0,0,0,1.02-.709c1.7-.521,2.98-1.874,4.6-2.6a20.065,20.065,0,0,0,3.18-2.144,6.358,6.358,0,0,1,1.43-.97c3.34-3.042,6.53-6.232,9.71-9.432a31.622,31.622,0,0,0,3.59-5.929,8.849,8.849,0,0,0,.25-3.589,16.71,16.71,0,0,1-.69-1.937c-0.88-.5-0.88-1.656-1.53-2.358-1.66-1.934-3.15-4.075-5.31-5.49a46.42,46.42,0,0,0-4.74-2.666,14.344,14.344,0,0,1-2.52-1.158,58.645,58.645,0,0,0-8.19-2.164,63.7,63.7,0,0,0-9.16-1.438,24.85,24.85,0,0,0-5.41-.63,20.379,20.379,0,0,0-5.25-.611A71.46,71.46,0,0,0,1219.03,499.952Z" transform="translate(-1153 -493)"/>
</svg>
